<?xml version="1.0" standalone="no"?>
<!DOCTYPE svg PUBLIC "-//W3C//DTD SVG 20010904//EN"
 "http://www.w3.org/TR/2001/REC-SVG-20010904/DTD/svg10.dtd">
<svg version="1.0" xmlns="http://www.w3.org/2000/svg"
 width="500.000000pt" height="500.000000pt" viewBox="0 0 500.000000 500.000000"
 preserveAspectRatio="xMidYMid meet">
<metadata>
Created by potrace 1.14, written by Peter Selinger 2001-2017
</metadata>
<g transform="translate(0.000000,500.000000) scale(0.100000,-0.100000)"
fill="#000000" stroke="none">
<path d="M2240 4725 c-384 -47 -741 -191 -1055 -428 -99 -73 -325 -281 -325
-297 0 -4 20 -15 43 -24 24 -9 54 -28 67 -41 l23 -25 86 83 c172 166 321 271
521 370 729 359 1579 265 2206 -246 43 -36 105 -92 137 -124 l58 -59 66 33
c36 18 73 33 81 33 23 0 -131 154 -248 249 -325 263 -721 430 -1125 476 -155
18 -390 17 -535 0z"/>
<path d="M2280 4299 c-366 -47 -707 -202 -985 -447 -77 -68 -175 -171 -175
-185 0 -2 17 -9 39 -15 21 -7 55 -24 76 -38 l38 -25 81 80 c97 96 133 125 251
203 205 136 456 228 705 258 473 57 968 -108 1310 -436 l98 -94 57 30 c31 16
68 30 81 30 13 0 24 3 24 6 0 14 -106 126 -183 193 -283 245 -618 395 -987
440 -97 13 -335 12 -430 0z"/>
<path d="M435 4147 c-82 -32 -128 -73 -163 -143 -18 -36 -27 -124 -77 -760
-50 -624 -56 -741 -51 -884 14 -414 120 -746 317 -997 30 -37 135 -151 234
-253 215 -220 308 -327 343 -395 14 -27 54 -117 87 -200 52 -126 66 -151 87
-159 34 -12 82 7 96 39 14 30 -6 117 -52 229 -82 198 -177 323 -496 651 -91
94 -187 200 -213 237 -62 86 -139 250 -172 363 -88 304 -91 525 -22 1405 26
327 50 609 52 627 8 46 55 93 95 93 42 0 67 -15 85 -51 16 -29 18 -113 24
-1020 1 -137 3 -160 20 -180 23 -29 81 -31 111 -4 20 18 20 27 20 488 l0 470
48 -7 c26 -3 58 -15 72 -25 25 -18 25 -21 23 -142 -2 -68 -9 -207 -17 -309 -8
-102 -18 -237 -22 -301 -6 -110 -5 -118 15 -138 27 -27 84 -28 109 -3 20 20
32 113 52 402 12 167 16 190 33 190 33 0 88 -23 102 -43 22 -32 19 -162 -10
-388 -30 -236 -31 -253 -5 -279 26 -26 83 -27 109 -1 40 40 98 582 72 677 -25
91 -102 159 -211 187 l-55 14 -2 56 c-4 106 -58 188 -155 236 -34 17 -75 31
-92 31 -45 0 -52 8 -70 80 -31 119 -80 178 -173 206 -55 17 -107 17 -148 1z"/>
<path d="M4375 4136 c-28 -12 -64 -39 -82 -59 -34 -39 -73 -132 -73 -176 0
-27 -3 -30 -52 -36 -99 -14 -193 -79 -233 -161 -11 -22 -21 -69 -23 -105 l-4
-67 -47 -6 c-63 -8 -148 -61 -186 -114 l-30 -44 1 -181 c0 -135 6 -220 23
-327 33 -215 35 -220 106 -220 24 0 39 7 53 25 22 28 23 16 -8 256 -11 80 -22
194 -26 252 -10 148 4 174 99 192 l35 7 6 -69 c4 -37 11 -140 16 -228 13 -196
27 -286 48 -302 23 -19 73 -15 102 7 23 17 25 24 22 92 -1 40 -9 156 -17 258
-32 406 -36 502 -20 526 13 21 43 34 107 48 l27 6 3 -476 3 -476 24 -19 c33
-27 73 -24 102 7 l24 26 5 576 5 577 29 43 c32 48 42 50 95 23 55 -28 62 -42
72 -133 34 -320 102 -1274 101 -1428 0 -256 -35 -454 -117 -675 -65 -175 -145
-282 -424 -568 -245 -253 -309 -335 -381 -491 -45 -96 -90 -236 -90 -276 0
-55 87 -93 122 -52 9 9 39 78 68 152 87 227 114 264 405 565 275 285 324 348
404 516 157 331 199 678 151 1244 -10 127 -29 356 -40 510 -37 504 -48 602
-68 648 -26 60 -84 113 -149 137 -70 26 -126 25 -188 -4z"/>
<path d="M2055 3749 c-236 -137 -454 -263 -483 -279 l-52 -30 2 -576 3 -575
480 -279 c264 -154 487 -279 495 -279 8 0 231 125 495 279 l480 279 0 576 0
576 -480 279 c-264 154 -487 279 -495 279 -8 0 -208 -112 -445 -250z m530
-339 c0 -2 14 -5 57 -13 14 -3 36 -10 47 -17 12 -6 21 -8 21 -4 0 4 9 -1 20
-11 11 -10 20 -14 20 -10 0 4 9 0 21 -11 12 -10 24 -19 28 -19 3 0 5 -4 3 -8
-1 -5 1 -6 6 -3 5 3 19 -6 32 -19 13 -13 27 -22 31 -19 5 3 9 -2 9 -11 0 -9 5
-13 10 -10 6 3 10 -1 10 -10 0 -10 5 -13 13 -9 6 4 9 3 4 -1 -4 -5 3 -19 15
-32 19 -21 30 -23 115 -23 l93 0 0 -240 0 -239 148 -3 147 -3 3 -67 3 -68
-237 0 -236 0 -83 -81 c-45 -45 -85 -80 -87 -78 -3 2 -15 -5 -27 -15 -12 -11
-21 -15 -21 -11 0 4 -9 0 -20 -10 -11 -10 -20 -15 -20 -11 0 4 -9 2 -21 -4
-11 -6 -30 -13 -42 -16 -12 -2 -35 -7 -52 -11 -53 -11 -206 -6 -222 8 -2 1
-11 2 -20 3 -10 1 -39 12 -65 24 -26 12 -51 22 -56 22 -5 0 -17 9 -27 20 -10
11 -22 17 -27 14 -4 -3 -7 0 -6 8 2 7 -2 12 -8 11 -13 -2 -82 66 -98 99 -9 17
-19 22 -41 21 -184 -15 -252 -2 -325 64 -75 67 -83 98 -88 351 l-4 212 91 0
91 0 0 -164 c0 -261 20 -316 113 -316 58 0 76 13 59 41 -11 17 -11 20 0 13 10
-6 10 -5 2 7 -12 14 -16 186 -5 204 3 6 6 15 7 20 7 35 13 60 13 63 1 1 0 4
-1 6 -2 2 6 14 17 27 12 13 14 19 5 14 -11 -6 -11 -4 2 11 17 20 18 22 18 54
0 13 7 20 20 20 11 0 23 8 27 18 8 22 84 102 93 97 4 -2 20 9 35 25 16 17 32
30 36 30 4 0 20 5 36 11 15 6 28 9 29 7 0 -2 7 2 15 9 8 7 29 14 46 17 17 3
41 9 52 14 18 6 176 9 176 2z"/>
<path d="M780 2671 c-46 -15 -105 -49 -126 -73 -54 -59 -76 -158 -55 -245 12
-48 157 -307 374 -668 89 -147 120 -191 141 -198 35 -12 79 6 97 40 12 23 10
32 -29 106 -23 45 -105 188 -182 317 -77 129 -168 289 -202 356 -60 117 -61
122 -48 154 17 42 86 75 136 65 49 -9 85 -44 294 -290 205 -240 265 -301 415
-425 200 -164 276 -251 308 -355 18 -55 48 -212 102 -530 46 -274 94 -503 111
-537 27 -53 103 -45 131 13 10 20 8 46 -12 144 -14 66 -54 287 -90 490 -76
432 -85 469 -127 555 -37 73 -188 234 -316 334 -124 98 -199 174 -375 381
-294 346 -318 366 -447 371 -41 2 -86 0 -100 -5z"/>
<path d="M4015 2664 c-55 -19 -141 -105 -349 -347 -188 -220 -251 -283 -428
-430 -230 -192 -293 -284 -333 -490 -26 -130 -149 -817 -168 -930 -10 -64 -9
-69 11 -89 26 -26 85 -30 108 -7 22 23 66 225 130 593 90 525 99 553 193 658
24 27 117 110 206 183 162 134 211 185 472 490 184 215 220 243 292 229 44 -9
91 -55 91 -90 0 -35 -86 -196 -260 -488 -158 -266 -210 -365 -210 -400 0 -28
42 -66 72 -66 49 0 52 5 328 475 196 332 214 370 218 462 5 88 -18 144 -81
198 -71 61 -199 82 -292 49z"/>
</g>
</svg>
